<svg xmlns="http://www.w3.org/2000/svg" viewBox="0 0 32 32" fill="white"><filter id="shadow"><feDropShadow dx="0" dy="2" stdDeviation="1.5" flood-color="#00A3FF"/></filter><g filter="url(#shadow)"><path d="M16 3C9.373 3 4 8.373 4 15c0 2.65.87 5.1 2.36 7.1L4 29l7.18-2.32A12.93 12.93 0 0016 27c6.627 0 12-5.373 12-12S22.627 3 16 3zm0 22c-1.98 0-3.84-.58-5.4-1.58l-.38-.24-4.28 1.38 1.4-4.16-.25-.4A9.98 9.98 0 016 15c0-5.52 4.48-10 10-10s10 4.48 10 10-4.48 10-10 10zm5.44-7.13c-.3-.15-1.77-.87-2.04-.97-.27-.1-.47-.15-.67.15-.2.3-.77.97-.94 1.17-.17.2-.35.22-.65.07-.3-.15-1.27-.47-2.42-1.5-.9-.8-1.5-1.77-1.67-2.07-.17-.3-.02-.46.13-.61.13-.13.3-.35.45-.52.15-.17.2-.3.3-.5.1-.2.05-.37-.02-.52-.07-.15-.67-1.62-.92-2.22-.24-.58-.48-.5-.67-.5-.17 0-.37-.02-.57-.02-.2 0-.52.07-.8.37-.27.3-1.05 1.02-1.05 2.5 0 1.47 1.07 2.9 1.22 3.1.15.2 2.1 3.2 5.1 4.37.71.3 1.26.48 1.7.62.71.23 1.36.2 1.87.12.57-.08 1.77-.72 2.02-1.42.25-.7.25-1.3.17-1.42-.08-.12-.28-.2-.58-.35z"/></g></svg>